<?xml version="1.0" standalone="no"?>
<!DOCTYPE svg PUBLIC "-//W3C//DTD SVG 20010904//EN"
 "http://www.w3.org/TR/2001/REC-SVG-20010904/DTD/svg10.dtd">
<svg version="1.0" xmlns="http://www.w3.org/2000/svg"
 width="755.000000pt" height="755.000000pt" viewBox="0 0 755.000000 755.000000"
 preserveAspectRatio="xMidYMid meet">

<g transform="translate(0.000000,755.000000) scale(0.100000,-0.100000)"
fill="#000000" stroke="none">
<path d="M3480 6973 c-100 -8 -323 -47 -445 -78 -358 -93 -706 -265 -1015
-503 -109 -84 -377 -352 -462 -462 -251 -326 -436 -711 -517 -1077 -35 -161
-40 -189 -57 -334 -20 -174 -15 -536 10 -692 85 -524 273 -954 592 -1347 62
-77 436 -458 1121 -1143 l1028 -1027 1026 1027 c564 566 1057 1066 1095 1113
383 468 593 1001 634 1609 5 80 8 146 7 147 -3 3 -985 7 -1014 5 -9 -1 -13
-23 -13 -76 0 -130 -38 -330 -91 -482 -201 -573 -697 -1010 -1285 -1132 -699
-146 -1406 143 -1806 736 -71 105 -166 297 -203 408 -184 560 -79 1170 280
1630 140 180 355 358 558 465 225 119 523 199 740 200 l67 0 0 510 0 510 -102
-2 c-57 -1 -123 -3 -148 -5z"/>
<path d="M2835 4710 c3 -5 8 -10 11 -10 2 0 4 5 4 10 0 6 -5 10 -11 10 -5 0
-7 -4 -4 -10z"/>
<path d="M2790 4548 c0 -17 -4 -27 -10 -23 -5 3 -10 -3 -10 -14 0 -22 14 -28
25 -11 4 6 15 8 25 5 11 -3 20 0 24 10 8 22 -1 38 -29 52 -24 10 -25 9 -25
-19z"/>
<path d="M2737 4485 c-5 -41 -10 -105 -11 -162 -1 -24 -4 -29 -13 -21 -10 8
-12 -14 -9 -103 5 -136 15 -219 27 -219 5 0 9 -13 9 -28 0 -43 55 -188 80
-212 3 -3 14 -25 25 -49 10 -24 31 -56 46 -72 14 -15 24 -30 22 -33 -3 -3 4
-11 16 -18 12 -7 21 -17 21 -23 1 -5 19 -28 42 -50 23 -23 38 -32 34 -22 -3
11 -2 16 4 12 6 -3 10 -13 10 -21 0 -8 7 -14 16 -14 8 0 13 -4 10 -9 -8 -13
62 -66 158 -121 20 -11 52 -29 71 -40 20 -11 45 -20 56 -20 11 0 32 -6 47 -14
36 -19 148 -46 192 -46 19 0 58 0 85 1 28 0 78 0 112 -1 43 -1 69 3 87 15 14
9 29 14 33 12 5 -3 17 1 27 8 18 14 18 15 -8 26 -14 7 -26 16 -26 20 0 4 -3
14 -6 23 -4 10 7 20 37 34 l42 19 -76 7 -75 8 -7 73 -7 73 -78 7 c-62 5 -77
10 -73 21 11 29 -6 64 -31 64 -14 0 -38 11 -54 25 -17 14 -37 25 -45 25 -8 0
-20 6 -26 14 -6 8 -25 19 -42 26 -35 15 -95 73 -104 100 -3 10 -30 44 -60 74
-95 98 -125 141 -125 175 0 31 -3 33 -50 35 -21 1 -25 6 -28 39 -2 28 0 37 12
37 22 0 22 75 1 84 -9 3 -15 19 -15 41 0 34 -1 35 -40 35 -40 0 -40 0 -40 39
0 39 -1 40 -37 43 -36 3 -38 5 -41 41 -3 37 -3 37 -50 39 -26 0 -56 1 -67 2
-15 1 -21 -6 -23 -26 -3 -28 -3 -28 -51 -1 -2 2 1 8 6 15 6 7 7 22 3 33 -6 16
-8 12 -13 -20z m33 -90 c0 -8 -4 -17 -10 -20 -6 -4 -10 5 -10 20 0 15 4 24 10
20 6 -3 10 -12 10 -20z m-5 -61 c0 -5 -8 -10 -17 -12 -11 -2 -18 3 -18 11 0 9
8 14 18 13 9 -2 17 -7 17 -12z m-38 -126 c-3 -7 -5 -2 -5 12 0 14 2 19 5 13 2
-7 2 -19 0 -25z m30 -200 c-3 -8 -6 -5 -6 6 -1 11 2 17 5 13 3 -3 4 -12 1 -19z
m483 -368 c0 -16 -4 -30 -10 -30 -5 0 -10 14 -10 30 0 17 5 30 10 30 6 0 10
-13 10 -30z m68 -47 c-10 -2 -26 -2 -35 0 -10 3 -2 5 17 5 19 0 27 -2 18 -5z
m102 -94 c0 -11 -4 -17 -10 -14 -5 3 -10 13 -10 21 0 8 5 14 10 14 6 0 10 -9
10 -21z m70 -95 c0 -21 -4 -33 -10 -29 -5 3 -10 19 -10 36 0 16 5 29 10 29 6
0 10 -16 10 -36z m87 -50 c-3 -3 -12 -4 -19 -1 -8 3 -5 6 6 6 11 1 17 -2 13
-5z m-90 -120 c-3 -3 -12 -4 -19 -1 -8 3 -5 6 6 6 11 1 17 -2 13 -5z m376 -7
c4 3 7 1 7 -5 0 -7 -9 -12 -20 -12 -12 0 -20 7 -20 16 0 13 3 14 13 5 8 -6 17
-8 20 -4z"/>
<path d="M2712 4380 c0 -14 2 -19 5 -12 2 6 2 18 0 25 -3 6 -5 1 -5 -13z"/>
<path d="M3100 4365 c0 -19 5 -35 10 -35 6 0 10 16 10 35 0 19 -4 35 -10 35
-5 0 -10 -16 -10 -35z"/>
<path d="M4142 3348 c5 -15 28 -23 28 -10 0 5 -7 13 -16 16 -10 4 -14 1 -12
-6z"/>
<path d="M4235 3340 c3 -6 1 -10 -6 -10 -7 0 -10 -3 -6 -6 3 -3 13 -2 22 4 16
8 16 9 1 15 -10 4 -15 3 -11 -3z"/>
<path d="M3950 3330 c0 -5 5 -10 10 -10 6 0 10 5 10 10 0 6 -4 10 -10 10 -5 0
-10 -4 -10 -10z"/>
<path d="M3932 3303 c-10 -4 -10 -8 -1 -19 17 -21 51 -18 47 3 -3 18 -24 25
-46 16z"/>
<path d="M4078 3263 c7 -3 16 -2 19 1 4 3 -2 6 -13 5 -11 0 -14 -3 -6 -6z"/>
<path d="M4008 3243 c7 -3 16 -2 19 1 4 3 -2 6 -13 5 -11 0 -14 -3 -6 -6z"/>
<path d="M3930 3220 c0 -5 6 -10 14 -10 8 0 18 5 21 10 3 6 -3 10 -14 10 -12
0 -21 -4 -21 -10z"/>
</g>
</svg>
